<svg xmlns="http://www.w3.org/2000/svg" viewBox="0 0 880 560" role="img" aria-label="Applied AI system map">
  <rect width="880" height="560" rx="28" fill="#091526"/>
  <g stroke="#1e3656" stroke-width="1">
    <path d="M80 80h720M80 180h720M80 280h720M80 380h720M80 480h720"/>
    <path d="M120 50v460M280 50v460M440 50v460M600 50v460M760 50v460"/>
  </g>
  <g fill="#0d1b2e" stroke-width="2">
    <rect x="72" y="92" width="190" height="86" rx="16" stroke="#36d7e8"/>
    <rect x="344" y="92" width="190" height="86" rx="16" stroke="#2dd4bf"/>
    <rect x="616" y="92" width="190" height="86" rx="16" stroke="#5ee08d"/>
    <rect x="208" y="292" width="190" height="86" rx="16" stroke="#36d7e8"/>
    <rect x="480" y="292" width="190" height="86" rx="16" stroke="#2dd4bf"/>
  </g>
  <g stroke="#54708f" stroke-width="3" fill="none" stroke-linecap="round">
    <path d="M262 135h82M534 135h82M167 178l136 114M439 178l-136 114M711 178L575 292"/>
    <path d="M398 335h82"/>
  </g>
  <g font-family="Inter, Arial, sans-serif">
    <text x="104" y="128" fill="#ffffff" font-size="18" font-weight="700">FHIR / HL7</text>
    <text x="104" y="154" fill="#9fb4d1" font-size="14">standards input</text>
    <text x="374" y="128" fill="#ffffff" font-size="18" font-weight="700">Agentic AI</text>
    <text x="374" y="154" fill="#9fb4d1" font-size="14">workflow state</text>
    <text x="646" y="128" fill="#ffffff" font-size="18" font-weight="700">Document AI</text>
    <text x="646" y="154" fill="#9fb4d1" font-size="14">OCR and RAG</text>
    <text x="240" y="328" fill="#ffffff" font-size="18" font-weight="700">ML Services</text>
    <text x="240" y="354" fill="#9fb4d1" font-size="14">risk scoring</text>
    <text x="512" y="328" fill="#ffffff" font-size="18" font-weight="700">LLMOps</text>
    <text x="512" y="354" fill="#9fb4d1" font-size="14">validation loop</text>
  </g>
</svg>

