<svg xmlns="http://www.w3.org/2000/svg" width="1200" height="630" viewBox="0 0 1200 630" role="img" aria-labelledby="title desc">
  <title id="title">Shailesh Dudala Applied AI Portfolio</title>
  <desc id="desc">Portfolio preview for healthcare AI, agentic AI, document intelligence, quant systems, sports forecasting, MLOps, and LLMOps.</desc>
  <defs>
    <linearGradient id="bg" x1="0" x2="1" y1="0" y2="1"><stop offset="0" stop-color="#05070c"/><stop offset=".52" stop-color="#0f172a"/><stop offset="1" stop-color="#182033"/></linearGradient>
    <linearGradient id="accent" x1="0" x2="1"><stop offset="0" stop-color="#58dce6"/><stop offset=".55" stop-color="#86efac"/><stop offset="1" stop-color="#f7c86a"/></linearGradient>
  </defs>
  <rect width="1200" height="630" fill="url(#bg)"/>
  <path d="M0 105H1200M0 210H1200M0 315H1200M0 420H1200M0 525H1200M150 0V630M300 0V630M450 0V630M600 0V630M750 0V630M900 0V630M1050 0V630" stroke="#ffffff" stroke-opacity=".045"/>
  <rect x="76" y="70" width="1048" height="490" rx="20" fill="#ffffff" fill-opacity=".055" stroke="#b4cae8" stroke-opacity=".24"/>
  <text x="120" y="162" fill="#58dce6" font-family="Inter,Segoe UI,sans-serif" font-size="22" font-weight="900" letter-spacing="5">APPLIED AI SYSTEMS PORTFOLIO</text>
  <text x="120" y="250" fill="#f5f8ff" font-family="Inter,Segoe UI,sans-serif" font-size="66" font-weight="900">Shailesh Dudala</text>
  <text x="120" y="312" fill="#d8e6f7" font-family="Inter,Segoe UI,sans-serif" font-size="31" font-weight="700">Healthcare ML, Agentic AI, Document Intelligence, Quant Systems</text>
  <g font-family="Inter,Segoe UI,sans-serif" font-size="20" font-weight="800">
    <rect x="120" y="388" width="220" height="64" rx="12" fill="#58dce6" fill-opacity=".12" stroke="#58dce6" stroke-opacity=".42"/><text x="154" y="428" fill="#e9fdff">FHIR / HL7 AI</text>
    <rect x="372" y="388" width="220" height="64" rx="12" fill="#86efac" fill-opacity=".11" stroke="#86efac" stroke-opacity=".38"/><text x="408" y="428" fill="#edfff4">LLMOps + RAG</text>
    <rect x="624" y="388" width="220" height="64" rx="12" fill="#f7c86a" fill-opacity=".12" stroke="#f7c86a" stroke-opacity=".42"/><text x="658" y="428" fill="#fff4cc">Quant Forecasting</text>
    <rect x="876" y="388" width="180" height="64" rx="12" fill="#ffffff" fill-opacity=".075" stroke="#b4cae8" stroke-opacity=".32"/><text x="914" y="428" fill="#f5f8ff">MLOps</text>
  </g>
  <path d="M120 502H1056" stroke="url(#accent)" stroke-width="4" stroke-linecap="round"/>
</svg>
