<svg xmlns="http://www.w3.org/2000/svg" viewBox="0 0 1200 630" role="img" aria-label="Shailesh Dudala Applied AI portfolio">
  <rect width="1200" height="630" fill="#07111f"/>
  <path d="M0 530h1200v100H0z" fill="#0d1b2e"/>
  <g stroke="#1e3656" stroke-width="1">
    <path d="M80 0v630M220 0v630M360 0v630M500 0v630M640 0v630M780 0v630M920 0v630M1060 0v630"/>
    <path d="M0 90h1200M0 190h1200M0 290h1200M0 390h1200M0 490h1200"/>
  </g>
  <circle cx="1000" cy="150" r="92" fill="#10243c" stroke="#36d7e8" stroke-width="3"/>
  <path d="M946 150h108M1000 96v108M966 116l68 68M1034 116l-68 68" stroke="#36d7e8" stroke-width="5" stroke-linecap="round"/>
  <text x="90" y="190" fill="#ffffff" font-family="Inter, Arial, sans-serif" font-size="64" font-weight="700">Shailesh Dudala</text>
  <text x="92" y="250" fill="#36d7e8" font-family="Inter, Arial, sans-serif" font-size="36" font-weight="600">Senior Applied AI / Agentic AI Engineer</text>
  <text x="92" y="330" fill="#c8d7ec" font-family="Inter, Arial, sans-serif" font-size="30">Healthcare AI, document intelligence, FHIR/HL7, claims automation, and LLMOps.</text>
  <g fill="#0d1b2e" stroke="#2dd4bf" stroke-width="2">
    <rect x="90" y="420" width="210" height="72" rx="14"/>
    <rect x="325" y="420" width="250" height="72" rx="14"/>
    <rect x="600" y="420" width="210" height="72" rx="14"/>
  </g>
  <text x="120" y="464" fill="#ffffff" font-family="Inter, Arial, sans-serif" font-size="24">Agentic AI</text>
  <text x="355" y="464" fill="#ffffff" font-family="Inter, Arial, sans-serif" font-size="24">Document AI</text>
  <text x="630" y="464" fill="#ffffff" font-family="Inter, Arial, sans-serif" font-size="24">LLMOps</text>
</svg>

