<svg xmlns="http://www.w3.org/2000/svg" width="1200" height="675" viewBox="0 0 1200 675" role="img" aria-labelledby="title desc">
  <title id="title">Data Science Lab</title>
  <desc id="desc">Technical card for archive, research, and foundational data science projects.</desc>
  <defs>
    <linearGradient id="bg" x1="0" x2="1" y1="0" y2="1"><stop offset="0" stop-color="#05070c"/><stop offset=".52" stop-color="#111827"/><stop offset="1" stop-color="#1f2937"/></linearGradient>
    <linearGradient id="accent" x1="0" x2="1"><stop offset="0" stop-color="#58dce6"/><stop offset=".5" stop-color="#86efac"/><stop offset="1" stop-color="#c4b5fd"/></linearGradient>
  </defs>
  <rect width="1200" height="675" fill="url(#bg)"/>
  <rect x="82" y="78" width="1036" height="518" rx="18" fill="#ffffff" fill-opacity=".055" stroke="#b4cae8" stroke-opacity=".22"/>
  <text x="120" y="150" fill="#f5f8ff" font-family="Inter,Segoe UI,sans-serif" font-size="44" font-weight="800">Data Science Lab</text>
  <text x="120" y="196" fill="#a7b5c9" font-family="Inter,Segoe UI,sans-serif" font-size="22">Experiments, research notes, healthcare ML foundations, and infrastructure thinking</text>
  <path d="M160 485c64-128 132-172 204-132s118 78 172 30 88-154 162-122 88 150 154 138 98-122 188-178" fill="none" stroke="url(#accent)" stroke-width="3"/>
  <g font-family="Inter,Segoe UI,sans-serif" font-size="20" font-weight="800">
    <rect x="150" y="270" width="190" height="86" rx="14" fill="#58dce6" fill-opacity=".12" stroke="#58dce6" stroke-opacity=".4"/><text x="180" y="322" fill="#e9fdff">Healthcare ML</text>
    <rect x="390" y="220" width="190" height="86" rx="14" fill="#86efac" fill-opacity=".11" stroke="#86efac" stroke-opacity=".38"/><text x="438" y="272" fill="#edfff4">RAG Concepts</text>
    <rect x="630" y="300" width="190" height="86" rx="14" fill="#c4b5fd" fill-opacity=".12" stroke="#c4b5fd" stroke-opacity=".4"/><text x="662" y="352" fill="#f0eaff">Visualization</text>
    <rect x="870" y="250" width="190" height="86" rx="14" fill="#f7c86a" fill-opacity=".12" stroke="#f7c86a" stroke-opacity=".42"/><text x="905" y="302" fill="#fff4cc">Infrastructure</text>
  </g>
</svg>
